<svg id="visual" viewBox="0 0 900 600" width="900" height="600" xmlns="http://www.w3.org/2000/svg" xmlns:xlink="http://www.w3.org/1999/xlink" version="1.1"><rect width="900" height="600" fill="#931F1F"></rect><g><g transform="translate(203 463)"><path d="M76.3 -22C87.6 9.9 77.6 51.5 48.4 74.6C19.2 97.7 -29.2 102.2 -59.4 80.5C-89.7 58.8 -101.8 10.9 -88.9 -23.3C-76 -57.5 -38 -78 -2.7 -77.1C32.5 -76.2 65.1 -53.9 76.3 -22Z" fill="none" stroke="#F7760E" stroke-width="20"></path></g><g transform="translate(633 591)"><path d="M86.3 -37.8C93.3 -6.4 67.7 25.8 35.7 49.1C3.6 72.3 -34.9 86.7 -59.5 71.3C-84.2 55.9 -94.9 10.8 -82.7 -27.8C-70.5 -66.4 -35.2 -98.5 2.2 -99.2C39.6 -99.9 79.2 -69.3 86.3 -37.8Z" fill="none" stroke="#F7760E" stroke-width="20"></path></g><g transform="translate(734 235)"><path d="M89.3 -21.2C102 10.3 89.3 57.8 58.6 80C27.9 102.1 -20.8 98.8 -45.6 77.4C-70.4 55.9 -71.4 16.2 -59.8 -13.6C-48.2 -43.4 -24.1 -63.4 7.1 -65.7C38.2 -68 76.5 -52.6 89.3 -21.2Z" fill="none" stroke="#F7760E" stroke-width="20"></path></g><g transform="translate(91 146)"><path d="M68.6 -21.1C77.5 5.2 65.5 39.5 41.9 56.4C18.2 73.2 -17.1 72.7 -43.4 54.8C-69.7 36.9 -87 1.5 -78.2 -24.5C-69.5 -50.6 -34.7 -67.3 -2.5 -66.5C29.8 -65.7 59.7 -47.4 68.6 -21.1Z" stroke="#F7760E" fill="none" stroke-width="20"></path></g><g transform="translate(458 27)"><path d="M85.9 -27.4C96.8 5.7 81.2 48 50.7 70.4C20.1 92.7 -25.4 95.1 -52.7 74.8C-80 54.4 -89.1 11.2 -77.3 -23.1C-65.5 -57.5 -32.7 -83.1 2.4 -83.8C37.5 -84.6 75 -60.6 85.9 -27.4Z" stroke="#F7760E" fill="none" stroke-width="20"></path></g></g></svg>