<svg id="visual" viewBox="0 0 900 600" width="900" height="600" xmlns="http://www.w3.org/2000/svg" xmlns:xlink="http://www.w3.org/1999/xlink" version="1.1"><path d="M593 600L521 600L521 557L728 557L728 514L638 514L638 471L647 471L647 429L701 429L701 386L665 386L665 343L566 343L566 300L593 300L593 257L620 257L620 214L638 214L638 171L692 171L692 129L530 129L530 86L665 86L665 43L629 43L629 0L900 0L900 43L900 43L900 86L900 86L900 129L900 129L900 171L900 171L900 214L900 214L900 257L900 257L900 300L900 300L900 343L900 343L900 386L900 386L900 429L900 429L900 471L900 471L900 514L900 514L900 557L900 557L900 600L900 600Z" fill="#fa7268"></path><path d="M467 600L386 600L386 557L593 557L593 514L521 514L521 471L575 471L575 429L602 429L602 386L548 386L548 343L422 343L422 300L521 300L521 257L494 257L494 214L494 214L494 171L566 171L566 129L440 129L440 86L566 86L566 43L485 43L485 0L630 0L630 43L666 43L666 86L531 86L531 129L693 129L693 171L639 171L639 214L621 214L621 257L594 257L594 300L567 300L567 343L666 343L666 386L702 386L702 429L648 429L648 471L639 471L639 514L729 514L729 557L522 557L522 600L594 600Z" fill="#ea5e66"></path><path d="M359 600L305 600L305 557L449 557L449 514L422 514L422 471L413 471L413 429L440 429L440 386L458 386L458 343L323 343L323 300L431 300L431 257L341 257L341 214L359 214L359 171L458 171L458 129L341 129L341 86L476 86L476 43L413 43L413 0L486 0L486 43L567 43L567 86L441 86L441 129L567 129L567 171L495 171L495 214L495 214L495 257L522 257L522 300L423 300L423 343L549 343L549 386L603 386L603 429L576 429L576 471L522 471L522 514L594 514L594 557L387 557L387 600L468 600Z" fill="#d84a64"></path><path d="M152 600L197 600L197 557L359 557L359 514L278 514L278 471L278 471L278 429L332 429L332 386L269 386L269 343L224 343L224 300L305 300L305 257L179 257L179 214L269 214L269 171L242 171L242 129L161 129L161 86L260 86L260 43L251 43L251 0L414 0L414 43L477 43L477 86L342 86L342 129L459 129L459 171L360 171L360 214L342 214L342 257L432 257L432 300L324 300L324 343L459 343L459 386L441 386L441 429L414 429L414 471L423 471L423 514L450 514L450 557L306 557L306 600L360 600Z" fill="#c53762"></path><path d="M0 600L0 600L0 557L0 557L0 514L0 514L0 471L0 471L0 429L0 429L0 386L0 386L0 343L0 343L0 300L0 300L0 257L0 257L0 214L0 214L0 171L0 171L0 129L0 129L0 86L0 86L0 43L0 43L0 0L252 0L252 43L261 43L261 86L162 86L162 129L243 129L243 171L270 171L270 214L180 214L180 257L306 257L306 300L225 300L225 343L270 343L270 386L333 386L333 429L279 429L279 471L279 471L279 514L360 514L360 557L198 557L198 600L153 600Z" fill="#b0235f"></path></svg>