<svg id="visual" viewBox="0 0 900 600" width="900" height="600" xmlns="http://www.w3.org/2000/svg" xmlns:xlink="http://www.w3.org/1999/xlink" version="1.1"><rect x="0" y="0" width="900" height="600" fill="#140021"></rect><path d="M0 289L129 289L129 255L257 255L257 352L386 352L386 256L514 256L514 375L643 375L643 273L771 273L771 371L900 371L900 308L900 0L900 0L771 0L771 0L643 0L643 0L514 0L514 0L386 0L386 0L257 0L257 0L129 0L129 0L0 0Z" fill="#9900ff"></path><path d="M0 233L129 233L129 263L257 263L257 253L386 253L386 207L514 207L514 243L643 243L643 240L771 240L771 232L900 232L900 172L900 0L900 0L771 0L771 0L643 0L643 0L514 0L514 0L386 0L386 0L257 0L257 0L129 0L129 0L0 0Z" fill="#7700c6"></path><path d="M0 150L129 150L129 141L257 141L257 145L386 145L386 93L514 93L514 70L643 70L643 106L771 106L771 144L900 144L900 74L900 0L900 0L771 0L771 0L643 0L643 0L514 0L514 0L386 0L386 0L257 0L257 0L129 0L129 0L0 0Z" fill="#560090"></path></svg>