<svg id="visual" viewBox="0 0 900 400" width="900" height="400" xmlns="http://www.w3.org/2000/svg" xmlns:xlink="http://www.w3.org/1999/xlink" version="1.1"><path d="M0 283L18.8 245C37.7 207 75.3 131 112.8 97C150.3 63 187.7 71 225.2 88C262.7 105 300.3 131 337.8 139C375.3 147 412.7 137 450.2 130C487.7 123 525.3 119 562.8 115C600.3 111 637.7 107 675.2 123C712.7 139 750.3 175 787.8 186C825.3 197 862.7 183 881.3 176L900 169L900 0L881.3 0C862.7 0 825.3 0 787.8 0C750.3 0 712.7 0 675.2 0C637.7 0 600.3 0 562.8 0C525.3 0 487.7 0 450.2 0C412.7 0 375.3 0 337.8 0C300.3 0 262.7 0 225.2 0C187.7 0 150.3 0 112.8 0C75.3 0 37.7 0 18.8 0L0 0Z" fill="#6198ff"></path><path d="M0 355L18.8 329C37.7 303 75.3 251 112.8 213C150.3 175 187.7 151 225.2 149C262.7 147 300.3 167 337.8 180C375.3 193 412.7 199 450.2 196C487.7 193 525.3 181 562.8 173C600.3 165 637.7 161 675.2 174C712.7 187 750.3 217 787.8 222C825.3 227 862.7 207 881.3 197L900 187L900 167L881.3 174C862.7 181 825.3 195 787.8 184C750.3 173 712.7 137 675.2 121C637.7 105 600.3 109 562.8 113C525.3 117 487.7 121 450.2 128C412.7 135 375.3 145 337.8 137C300.3 129 262.7 103 225.2 86C187.7 69 150.3 61 112.8 95C75.3 129 37.7 205 18.8 243L0 281Z" fill="#3c80ff"></path><path d="M0 463L18.8 463C37.7 463 75.3 463 112.8 437C150.3 411 187.7 359 225.2 334C262.7 309 300.3 311 337.8 315C375.3 319 412.7 325 450.2 326C487.7 327 525.3 323 562.8 334C600.3 345 637.7 371 675.2 393C712.7 415 750.3 433 787.8 436C825.3 439 862.7 427 881.3 421L900 415L900 185L881.3 195C862.7 205 825.3 225 787.8 220C750.3 215 712.7 185 675.2 172C637.7 159 600.3 163 562.8 171C525.3 179 487.7 191 450.2 194C412.7 197 375.3 191 337.8 178C300.3 165 262.7 145 225.2 147C187.7 149 150.3 173 112.8 211C75.3 249 37.7 301 18.8 327L0 353Z" fill="#0066ff"></path><path d="M0 475L18.8 484C37.7 493 75.3 511 112.8 500C150.3 489 187.7 449 225.2 434C262.7 419 300.3 429 337.8 435C375.3 441 412.7 443 450.2 437C487.7 431 525.3 417 562.8 427C600.3 437 637.7 471 675.2 498C712.7 525 750.3 545 787.8 534C825.3 523 862.7 481 881.3 460L900 439L900 413L881.3 419C862.7 425 825.3 437 787.8 434C750.3 431 712.7 413 675.2 391C637.7 369 600.3 343 562.8 332C525.3 321 487.7 325 450.2 324C412.7 323 375.3 317 337.8 313C300.3 309 262.7 307 225.2 332C187.7 357 150.3 409 112.8 435C75.3 461 37.7 461 18.8 461L0 461Z" fill="#0059dd"></path><path d="M0 601L18.8 601C37.7 601 75.3 601 112.8 601C150.3 601 187.7 601 225.2 601C262.7 601 300.3 601 337.8 601C375.3 601 412.7 601 450.2 601C487.7 601 525.3 601 562.8 601C600.3 601 637.7 601 675.2 601C712.7 601 750.3 601 787.8 601C825.3 601 862.7 601 881.3 601L900 601L900 437L881.3 458C862.7 479 825.3 521 787.8 532C750.3 543 712.7 523 675.2 496C637.7 469 600.3 435 562.8 425C525.3 415 487.7 429 450.2 435C412.7 441 375.3 439 337.8 433C300.3 427 262.7 417 225.2 432C187.7 447 150.3 487 112.8 498C75.3 509 37.7 491 18.8 482L0 473Z" fill="#004cbb"></path></svg>