<svg id="visual" viewBox="0 0 900 600" width="900" height="600" xmlns="http://www.w3.org/2000/svg" xmlns:xlink="http://www.w3.org/1999/xlink" version="1.1"><rect x="0" y="0" width="900" height="600" fill="#001220"></rect><path d="M0 318L21.5 315.8C43 313.7 86 309.3 128.8 284.7C171.7 260 214.3 215 257.2 207C300 199 343 228 385.8 260.3C428.7 292.7 471.3 328.3 514.2 317.8C557 307.3 600 250.7 642.8 220.3C685.7 190 728.3 186 771.2 198.7C814 211.3 857 240.7 878.5 255.3L900 270L900 601L878.5 601C857 601 814 601 771.2 601C728.3 601 685.7 601 642.8 601C600 601 557 601 514.2 601C471.3 601 428.7 601 385.8 601C343 601 300 601 257.2 601C214.3 601 171.7 601 128.8 601C86 601 43 601 21.5 601L0 601Z" fill="#fa7268"></path><path d="M0 332L21.5 327.2C43 322.3 86 312.7 128.8 328.8C171.7 345 214.3 387 257.2 391.8C300 396.7 343 364.3 385.8 338.3C428.7 312.3 471.3 292.7 514.2 297C557 301.3 600 329.7 642.8 333.5C685.7 337.3 728.3 316.7 771.2 313.5C814 310.3 857 324.7 878.5 331.8L900 339L900 601L878.5 601C857 601 814 601 771.2 601C728.3 601 685.7 601 642.8 601C600 601 557 601 514.2 601C471.3 601 428.7 601 385.8 601C343 601 300 601 257.2 601C214.3 601 171.7 601 128.8 601C86 601 43 601 21.5 601L0 601Z" fill="#dc4267"></path><path d="M0 352L21.5 354.5C43 357 86 362 128.8 380.8C171.7 399.7 214.3 432.3 257.2 449.8C300 467.3 343 469.7 385.8 463C428.7 456.3 471.3 440.7 514.2 438.8C557 437 600 449 642.8 447C685.7 445 728.3 429 771.2 414.8C814 400.7 857 388.3 878.5 382.2L900 376L900 601L878.5 601C857 601 814 601 771.2 601C728.3 601 685.7 601 642.8 601C600 601 557 601 514.2 601C471.3 601 428.7 601 385.8 601C343 601 300 601 257.2 601C214.3 601 171.7 601 128.8 601C86 601 43 601 21.5 601L0 601Z" fill="#c62368"></path><path d="M0 503L21.5 502.5C43 502 86 501 128.8 503.8C171.7 506.7 214.3 513.3 257.2 505.5C300 497.7 343 475.3 385.8 469.7C428.7 464 471.3 475 514.2 487C557 499 600 512 642.8 504.2C685.7 496.3 728.3 467.7 771.2 466.7C814 465.7 857 492.3 878.5 505.7L900 519L900 601L878.5 601C857 601 814 601 771.2 601C728.3 601 685.7 601 642.8 601C600 601 557 601 514.2 601C471.3 601 428.7 601 385.8 601C343 601 300 601 257.2 601C214.3 601 171.7 601 128.8 601C86 601 43 601 21.5 601L0 601Z" fill="#dc4267"></path><path d="M0 489L21.5 485.2C43 481.3 86 473.7 128.8 475C171.7 476.3 214.3 486.7 257.2 489.5C300 492.3 343 487.7 385.8 498C428.7 508.3 471.3 533.7 514.2 539.8C557 546 600 533 642.8 526.2C685.7 519.3 728.3 518.7 771.2 526.5C814 534.3 857 550.7 878.5 558.8L900 567L900 601L878.5 601C857 601 814 601 771.2 601C728.3 601 685.7 601 642.8 601C600 601 557 601 514.2 601C471.3 601 428.7 601 385.8 601C343 601 300 601 257.2 601C214.3 601 171.7 601 128.8 601C86 601 43 601 21.5 601L0 601Z" fill="#fa7268"></path></svg>